Patient4_TMGait_0pt4_01_right_09_GRF.mot
version=1
nRows=45
nColumns=19
inDegrees=no
endheader
time	F1x	F1y	F1z	M1x	M1y	M1z	F2x	F2y	F2z	M2x	M2y	M2z	EC1x	EC1y	EC1z	EC2x	EC2y	EC2z
11.33	-17.279	747.4359	67.9409	-280.3767	-70.0933	779.9466	-0.41731	-1.21	6.6793	-2.5509	-3.4215	-1.5118	-0.0592	0.0182	-0.0073	-0.0462	0.0165	0.9585
11.3436	-13.0739	739.4899	65.3878	-276.9587	-66.4679	770.1358	-0.40826	-0.18006	4.3791	-1.4724	-2.124	-0.28886	-0.0592	0.0182	-0.0073	-0.0462	0.0165	0.9585
11.3571	-9.024	732.0423	63.1652	-273.7023	-63.0039	760.1533	-0.42866	0.66887	2.4401	-0.56533	-1.025	0.7069	-0.0592	0.0182	-0.0073	-0.0462	0.0165	0.9585
11.3707	-5.3611	726.1518	61.3956	-271.0489	-59.8893	751.1027	-0.46572	1.3131	0.97582	0.12495	-0.19054	1.4616	-0.0592	0.0182	-0.0073	-0.0462	0.0165	0.9585
11.3843	-2.1662	722.6303	60.0732	-269.3471	-57.1754	743.869	-0.51837	1.7723	-0.019515	0.60494	0.3835	2.006	-0.0592	0.0182	-0.0073	-0.0462	0.0165	0.9585
11.3979	0.59499	721.9226	59.1379	-268.7958	-54.8352	738.978	-0.57701	2.0713	-0.62399	0.90368	0.74326	2.3674	-0.0592	0.0182	-0.0073	-0.0462	0.0165	0.9585
11.4114	3.0801	724.0852	58.4877	-269.4345	-52.7633	736.5292	-0.64854	2.2205	-0.93455	1.0543	0.9463	2.5579	-0.0592	0.0182	-0.0073	-0.0462	0.0165	0.9585
11.425	5.4751	728.8381	58.0718	-271.1609	-50.8838	736.2768	-0.74179	2.2088	-1.0516	1.0812	1.0541	2.5609	-0.0592	0.0182	-0.0073	-0.0462	0.0165	0.9585
11.4386	7.9673	735.7057	57.8138	-273.7867	-49.0926	737.7714	-0.85169	2.0179	-1.0537	0.99886	1.109	2.3437	-0.0592	0.0182	-0.0073	-0.0462	0.0165	0.9585
11.4521	10.7107	744.0895	57.6602	-277.0648	-47.3062	740.4493	-0.97881	1.6031	-1.0128	0.80746	1.1528	1.8637	-0.0592	0.0182	-0.0073	-0.0462	0.0165	0.9585
11.4657	13.8178	753.2929	57.5373	-280.6987	-45.4314	743.67	-1.1142	0.8913	-0.96732	0.49365	1.2018	1.0457	-0.0592	0.0182	-0.0073	-0.0462	0.0165	0.9585
11.4793	17.3544	762.4948	57.4345	-284.3322	-43.4458	746.6948	-1.232	-0.18489	-0.94606	0.040539	1.2655	-0.17905	-0.0592	0.0182	-0.0073	-0.0462	0.0165	0.9585
11.4929	21.3146	770.8423	57.3674	-287.5921	-41.3718	748.8041	-1.2856	-1.667	-0.94642	-0.5623	1.3207	-1.8537	-0.0592	0.0182	-0.0073	-0.0462	0.0165	0.9585
11.5064	25.6067	777.5956	57.3589	-290.1526	-39.2686	749.4429	-1.2146	-3.5363	-0.94932	-1.3043	1.3204	-3.9535	-0.0592	0.0182	-0.0073	-0.0462	0.0165	0.9585
11.52	30.0491	782.1723	57.4135	-291.7562	-37.2122	748.2492	-0.93961	-5.639	-0.91357	-2.126	1.1869	-6.3098	-0.0592	0.0182	-0.0073	-0.0462	0.0165	0.9585
11.5336	34.3826	784.096	57.5245	-292.1944	-35.2986	744.9869	-0.35255	-7.6299	-0.78685	-2.8954	0.82384	-8.5467	-0.0592	0.0182	-0.0073	-0.0462	0.0165	0.9585
11.5471	38.3186	782.9669	57.6905	-291.2982	-33.6393	739.48	0.64767	-8.9023	-0.50206	-3.3792	0.12342	-9.9835	-0.0592	0.0182	-0.0073	-0.0462	0.0165	0.9585
11.5607	41.6081	778.5322	57.9066	-288.967	-32.3337	731.6471	2.1481	-8.5111	0.019162	-3.2128	-1.0275	-9.565	-0.0592	0.0182	-0.0073	-0.0462	0.0165	0.9585
11.5743	44.1066	770.7482	58.166	-285.1975	-31.4402	721.5145	4.1952	-5.1204	0.84326	-1.882	-2.7114	-5.8074	-0.0592	0.0182	-0.0073	-0.0462	0.0165	0.9585
11.5879	45.8141	759.7849	58.4424	-280.0868	-30.9467	709.2174	6.7204	2.9655	2.0147	1.267	-4.9406	3.1793	-0.0592	0.0182	-0.0073	-0.0462	0.0165	0.9585
11.6014	46.8207	745.9432	58.6699	-273.7984	-30.7632	694.9533	9.4748	17.6525	3.5162	6.972	-7.5836	19.5209	-0.0592	0.0182	-0.0073	-0.0462	0.0165	0.9585
11.615	47.2742	729.4977	58.7616	-266.4953	-30.7557	678.8535	11.9362	40.7719	5.2324	15.9403	-10.2942	45.2592	-0.0592	0.0182	-0.0073	-0.0462	0.0165	0.9585
11.6286	47.295	710.526	58.6103	-258.2692	-30.7751	660.8641	13.2183	73.5175	6.8865	28.6307	-12.4081	81.7164	-0.0592	0.0182	-0.0073	-0.0462	0.0165	0.9585
11.6421	46.926	688.7784	58.1051	-249.089	-30.6911	640.6495	12.0788	115.6885	8.0149	44.9606	-12.9315	128.6628	-0.0592	0.0182	-0.0073	-0.0462	0.0165	0.9585
11.6557	46.1676	663.7024	57.0985	-238.8121	-30.3586	617.6121	7.6286	165.201	7.9955	64.0963	-10.8398	183.7898	-0.0592	0.0182	-0.0073	-0.0462	0.0165	0.9585
11.6693	44.9934	634.6889	55.4344	-227.2758	-29.636	591.1188	0.42744	218.0731	6.1197	84.4501	-5.6113	242.6306	-0.0592	0.0182	-0.0073	-0.0462	0.0165	0.9585
11.6829	43.4219	601.3991	53.0075	-214.408	-28.414	560.7632	-7.9404	269.4252	2.3981	104.1288	2.0554	299.5826	-0.0592	0.0182	-0.0073	-0.0462	0.0165	0.9585
11.6964	41.5094	563.8926	49.8278	-200.2636	-26.6658	526.5016	-15.9385	315.706	-2.6936	121.7764	10.99	350.4965	-0.0592	0.0182	-0.0073	-0.0462	0.0165	0.9585
11.71	39.3135	522.5196	45.9948	-184.9785	-24.4443	488.5708	-22.5343	355.7286	-8.3821	136.9725	19.9284	393.9363	-0.0592	0.0182	-0.0073	-0.0462	0.0165	0.9585
11.7236	36.8123	477.7699	41.6304	-168.7152	-21.8499	447.3823	-27.2511	389.966	-13.8579	149.9509	27.8008	430.4174	-0.0592	0.0182	-0.0073	-0.0462	0.0165	0.9585
11.7371	33.9337	430.2942	36.8588	-151.6741	-19.0078	403.5362	-30.0147	419.8873	-18.4787	161.3201	33.8988	461.5946	-0.0592	0.0182	-0.0073	-0.0462	0.0165	0.9585
11.7507	30.5923	380.9148	31.8158	-134.1092	-16.0591	357.7995	-30.9519	447.5575	-21.9727	171.8858	37.9997	489.7691	-0.0592	0.0182	-0.0073	-0.0462	0.0165	0.9585
11.7643	26.6854	330.5964	26.7116	-116.3175	-13.2163	311.094	-30.3653	475.2673	-24.397	182.5034	40.3139	517.4961	-0.0592	0.0182	-0.0073	-0.0462	0.0165	0.9585
11.7779	22.176	280.4304	21.7824	-98.6422	-10.6985	264.4438	-28.7214	505.0273	-26.2373	193.8789	41.5565	547.0571	-0.0592	0.0182	-0.0073	-0.0462	0.0165	0.9585
11.7914	17.1076	231.6729	17.2632	-81.4908	-8.6995	219.0268	-26.5474	538.0852	-28.106	206.4075	42.5898	579.903	-0.0592	0.0182	-0.0073	-0.0462	0.0165	0.9585
11.805	11.6855	185.7294	13.3107	-65.3346	-7.2943	176.1502	-24.3935	574.6932	-30.6327	220.1022	44.2841	616.4035	-0.0592	0.0182	-0.0073	-0.0462	0.0165	0.9585
11.8186	6.2753	143.9883	10.0209	-50.6509	-6.4449	137.0945	-22.7217	614.1458	-34.1199	234.6392	47.1287	655.8656	-0.0592	0.0182	-0.0073	-0.0462	0.0165	0.9585
11.8321	1.3489	107.5207	7.4137	-37.8149	-6.0056	102.8479	-21.771	654.9817	-38.5206	249.4397	51.1486	696.758	-0.0592	0.0182	-0.0073	-0.0462	0.0165	0.9585
11.8457	-2.6378	76.8435	5.4367	-27.0113	-5.7681	73.8988	-21.5173	695.186	-43.4134	263.7482	55.882	736.9263	-0.0592	0.0182	-0.0073	-0.0462	0.0165	0.9585
11.8593	-5.3702	51.9274	3.9754	-18.2346	-5.5143	50.2583	-21.7714	732.4023	-48.2988	276.6991	60.722	773.8517	-0.0592	0.0182	-0.0073	-0.0462	0.0165	0.9585
11.8729	-6.7197	32.4183	2.8538	-11.367	-5.0406	31.6393	-22.2915	764.2407	-52.7313	287.4219	65.1068	805.0061	-0.0592	0.0182	-0.0073	-0.0462	0.0165	0.9585
11.8864	-6.7646	17.8211	1.9528	-6.2378	-4.2727	17.6233	-22.8374	788.5845	-56.4395	295.1558	68.662	828.1848	-0.0592	0.0182	-0.0073	-0.0462	0.0165	0.9585
11.9	-5.8272	7.591	1.2063	-2.6549	-3.2724	7.7338	-23.2113	803.9222	-59.2698	299.3841	71.16	841.8416	-0.0592	0.0182	-0.0073	-0.0462	0.0165	0.9585
11.9136	-4.4583	1.1073	0.64601	-0.39218	-2.2701	1.4129	-23.2582	809.6836	-61.1342	299.9606	72.4676	845.4091	-0.0592	0.0182	-0.0073	-0.0462	0.0165	0.9585
11.9271	-3.0516	-2.4462	0.26591	0.84117	-1.4099	-2.0941	-22.8547	806.4742	-61.9821	297.1873	72.5139	839.5315	-0.0592	0.0182	-0.0073	-0.0462	0.0165	0.9585
